<?xml version="1.0" encoding="iso-8859-1"?>
<svg height="800px" width="800px" version="1.1" id="Capa_1" xmlns="http://www.w3.org/2000/svg"
	xmlns:xlink="http://www.w3.org/1999/xlink"
	viewBox="0 0 107.373 107.373" xml:space="preserve">
<g>
	<g>
		<path style="fill:#53A2BE;" d="M106.317,37.463c-1.406-1.403-3.672-1.403-5.071,0L70.013,68.692L26.104,88.029l-6.764-6.768
			l19.344-43.905L69.909,6.123c1.403-1.399,1.403-3.668,0-5.071c-1.406-1.403-3.672-1.403-5.071,0L32.657,33.226L0.004,107.373
			l74.136-32.657l32.177-32.181C107.72,41.139,107.72,38.863,106.317,37.463z"/>
		<path style="fill:#0A2239;" d="M60.815,62.265c0.698,0.694,1.618,1.049,2.537,1.049c0.92,0,1.836-0.354,2.537-1.049l30.07-30.07
			c1.406-1.406,1.406-3.675,0-5.075c-1.403-1.406-3.668-1.406-5.075,0l-30.07,30.07C59.416,58.589,59.416,60.862,60.815,62.265z"/>
		<path style="fill:#176087;" d="M52.967,54.413c0.701,0.698,1.621,1.049,2.537,1.049c0.92,0,1.836-0.351,2.537-1.049l30.073-30.07
			c1.403-1.406,1.403-3.675,0-5.075c-1.406-1.406-3.672-1.406-5.075,0l-30.073,30.07C51.564,50.737,51.564,53.014,52.967,54.413z"/>
		<path style="fill:#1D84B5;" d="M45.115,46.561c0.701,0.698,1.621,1.049,2.537,1.049c0.916,0,1.836-0.351,2.537-1.049l30.073-30.07
			c1.403-1.406,1.403-3.675,0-5.075c-1.403-1.406-3.672-1.406-5.075,0l-30.073,30.07C43.716,42.885,43.716,45.162,45.115,46.561z"/>
	</g>
</g>
</svg>